<svg id="Logo" xmlns="http://www.w3.org/2000/svg" viewBox="0 0 283.4646 65.4803"><path d="M78.3874,19.1067h9.1354V31.3613H99.5915V19.1067h9.1345V51.848H99.5915V39.4065H87.5228V51.848H78.3874ZM116.638,35.5708v-.0931c0-9.4015,7.4559-17.0256,17.6273-17.0256s17.5336,7.53,17.5336,16.9318v.0938c0,9.4008-7.4567,17.0248-17.6281,17.0248S116.638,44.9723,116.638,35.5708Zm25.8374,0v-.0931c0-4.7244-3.2657-8.84-8.3046-8.84-4.9912,0-8.1625,4.0217-8.1625,8.7462v.0938c0,4.7237,3.2658,8.84,8.257,8.84C139.3033,44.3178,142.4754,40.2952,142.4754,35.5708Zm17.6539-16.4641h9.1353v24.79h15.1038V51.848H160.1293Zm28.8284,16.4641v-.0931c0-9.5419,7.3927-17.0256,17.3752-17.0256,6.7338,0,11.0661,2.8066,13.9852,6.8292l-6.8751,5.2851c-1.8831-2.3389-4.0488-3.8357-7.2038-3.8357-4.6149,0-7.8643,3.8822-7.8643,8.6532v.0938c0,4.91,3.2494,8.7463,7.8643,8.7463,3.4368,0,5.462-1.5906,7.44-3.9753l6.8751,4.864c-3.1081,4.256-7.2991,7.39-14.5973,7.39A16.6817,16.6817,0,0,1,188.9577,35.5708Zm39.8144-16.4641h9.1822V51.848h-9.1822Zm18.6277,0h9.653l8.38,12.6757,8.379-12.6757h9.653V51.848h-9.0877V32.7036L265.4326,45.52h-.189L256.347,32.7974V51.848H247.4Z"/><path d="M43.3617,0A18.4,18.4,0,0,0,25.0759,14.2271a33.8265,33.8265,0,0,0-.7147,7.5V28.097h13.64V13.6318H48.7223V37.1452A19.02,19.02,0,0,0,62.3622,18.93,18.734,18.734,0,0,0,43.3617,0Zm-24.53,65.48A18.5884,18.5884,0,0,0,37.2863,51.2532a33.8262,33.8262,0,0,0,.7147-7.5v-6.37h-13.64V51.8485H13.64V28.3351A19.02,19.02,0,0,0,0,46.5506C0,57.656,7.72,65.48,18.8317,65.48Z"/></svg>